<svg xmlns="http://www.w3.org/2000/svg" viewBox="0 0 512 512"><path d="M362.3,361.9L362.0,362.5L361.6,362.4L361.6,362.0L361.5,361.9L361.6,361.5L361.7,361.4L362.2,361.7L362.3,361.9ZM390.2,296.9L389.6,297.1L387.6,296.3L386.2,295.5L385.4,294.4L385.3,294.0L386.2,294.0L387.2,294.4L387.4,295.0L387.8,295.2L388.0,295.5L389.8,296.3L390.1,296.6L390.2,296.9ZM393.5,311.1L393.4,311.3L392.4,310.7L391.4,310.6L391.1,310.2L391.0,309.4L392.1,309.4L393.4,310.1L393.7,310.4L393.5,311.1ZM392.5,313.7L392.5,313.9L391.9,313.3L391.6,313.2L391.7,312.9L392.1,312.8L392.5,313.5L392.5,313.7ZM394.3,311.7L394.2,312.2L394.0,312.1L393.7,311.4L393.9,311.2L394.3,311.2L394.3,311.7ZM374.7,353.0L374.1,353.4L373.8,353.2L373.8,352.6L374.0,352.1L373.7,351.7L373.9,351.3L374.4,351.2L374.5,351.4L374.8,351.6L374.8,351.7L374.8,352.0L374.6,352.5L374.8,352.8L374.7,353.0ZM303.1,393.6L303.4,393.9L304.1,393.7L304.3,394.1L304.2,394.3L304.0,394.7L303.4,394.4L302.7,394.5L302.3,394.4L302.2,394.2L302.5,393.7L303.1,393.6ZM385.6,328.5L384.9,328.8L384.6,328.8L384.6,328.1L385.2,327.4L385.4,327.7L385.6,328.0L385.6,328.5ZM327.1,377.7L327.2,378.1L326.6,377.4L326.5,377.4L326.2,377.2L326.0,376.7L326.5,376.7L326.9,377.2L327.1,377.7ZM321.3,388.8L321.2,389.0L321.0,388.7L320.9,388.2L320.7,388.0L321.1,387.6L321.3,387.3L321.7,387.3L321.9,387.4L321.5,387.8L321.4,388.0L321.3,388.8ZM320.2,388.5L319.5,388.7L319.3,388.6L319.6,388.2L320.3,387.8L320.2,388.5ZM284.8,389.7L284.3,389.2L283.5,388.4L283.2,388.3L282.3,388.7L281.0,388.9L280.7,388.5L280.1,388.8L279.5,387.8L278.8,387.8L277.9,387.0L277.6,386.7L277.4,386.1L277.2,385.8L276.8,385.9L276.5,385.6L275.8,385.3L275.3,385.1L275.1,385.3L274.9,385.3L274.8,385.0L274.8,383.9L274.8,382.9L274.6,382.4L274.3,382.1L274.0,382.0L273.9,381.5L274.0,380.5L274.2,379.8L274.6,379.7L275.2,379.2L275.4,378.5L275.7,377.9L274.6,377.0L273.9,376.7L273.2,376.8L272.4,377.1L271.9,377.2L271.7,377.1L271.2,376.2L270.9,376.1L270.3,376.1L269.8,376.1L269.5,376.4L269.1,376.5L268.6,376.6L268.2,376.1L267.5,375.6L266.4,375.2L266.2,374.7L266.0,374.1L265.6,373.6L264.9,373.0L264.3,372.6L264.0,372.8L263.6,373.2L262.2,374.0L261.5,374.3L261.2,374.6L260.9,374.9L260.8,375.7L260.7,376.7L260.3,377.1L259.9,377.5L259.4,377.5L259.0,377.5L258.6,377.7L257.4,378.6L256.9,378.5L256.4,378.0L256.2,377.6L255.7,377.7L255.0,378.1L254.7,378.9L254.6,379.7L254.4,380.0L254.2,380.1L254.0,380.1L251.9,378.0L251.8,377.9L251.4,378.3L251.0,379.4L250.8,379.7L250.6,379.6L249.7,378.1L249.5,378.0L249.3,378.0L249.1,378.5L248.5,379.2L248.1,379.6L248.1,380.1L247.6,380.5L247.1,380.9L246.9,381.0L246.5,380.8L246.1,380.3L245.8,379.7L244.9,379.1L244.0,378.6L243.4,378.2L243.0,378.2L242.7,378.3L242.5,378.6L242.3,379.1L241.8,380.1L241.2,380.8L240.8,381.3L240.4,381.6L240.2,381.3L239.6,381.1L239.0,381.0L238.3,381.5L237.6,380.6L237.5,380.5L237.2,380.6L237.0,380.8L236.8,381.4L236.6,382.1L236.2,382.6L235.8,382.8L235.9,383.2L236.1,383.6L236.1,384.0L236.2,384.6L236.4,385.2L237.2,386.2L237.4,386.8L237.5,387.2L237.5,388.8L237.5,389.5L237.4,390.8L237.4,391.5L237.7,391.8L238.0,392.2L237.9,392.5L237.8,392.5L237.4,393.0L237.2,393.0L236.9,392.9L236.6,392.7L236.3,392.5L236.0,392.3L235.2,392.3L234.0,392.7L233.8,392.6L233.6,392.4L233.5,391.8L233.5,391.2L233.4,390.9L233.2,390.6L233.4,389.6L232.9,389.2L233.0,389.0L232.8,387.9L232.9,387.6L232.8,387.5L232.5,387.4L232.0,387.6L230.6,388.3L229.4,389.7L228.9,390.0L228.3,390.2L227.7,389.9L226.9,389.8L225.9,390.1L225.4,390.0L225.2,389.7L225.0,389.2L225.1,388.7L225.0,388.3L224.6,388.1L224.1,387.9L223.8,387.4L223.7,386.8L223.8,386.0L223.9,385.2L223.7,384.9L222.9,384.7L221.2,384.3L219.6,384.1L219.0,384.2L218.5,384.1L218.2,384.0L218.0,383.7L218.0,383.3L218.2,382.5L218.5,381.7L219.3,380.5L219.3,379.7L219.3,378.7L219.6,377.5L220.2,376.5L220.5,376.2L220.5,375.8L220.2,375.4L219.9,375.2L219.3,374.9L218.4,374.9L217.1,374.6L215.6,374.1L215.8,373.0L215.8,372.3L215.6,371.7L215.3,371.4L215.2,371.0L215.4,370.0L215.1,369.0L214.7,368.5L214.3,368.0L214.2,367.4L214.4,366.9L215.4,365.7L215.4,365.4L215.2,365.4L214.9,365.5L213.5,365.9L213.4,365.6L212.9,365.5L211.9,365.4L210.7,365.5L209.2,365.9L207.9,366.7L207.3,367.2L206.7,367.5L206.3,367.6L205.8,367.4L205.8,366.6L206.8,365.3L206.9,364.4L206.6,363.6L206.6,363.0L206.3,362.6L205.8,362.4L205.5,362.0L205.5,360.7L206.0,359.3L206.6,358.9L207.0,358.7L207.1,358.4L206.9,357.5L206.9,356.9L207.3,355.8L207.7,354.9L208.5,355.0L208.8,354.8L209.2,354.5L209.6,354.0L209.9,353.4L210.2,351.9L210.4,351.7L211.4,352.0L211.6,351.8L212.2,350.9L212.6,349.9L213.4,349.6L213.8,349.5L214.1,349.2L214.1,348.7L213.6,347.9L213.4,347.3L213.4,346.9L214.1,346.6L214.3,346.2L214.2,345.2L214.5,343.9L214.7,342.5L214.7,341.4L214.7,340.6L214.6,339.8L214.5,338.2L214.2,336.9L214.3,336.4L214.2,334.7L214.0,333.3L213.7,333.1L212.9,332.6L212.5,332.5L212.2,332.7L212.1,333.2L211.8,333.6L211.4,333.5L211.2,333.1L210.9,332.5L210.1,329.6L210.0,328.8L209.9,328.0L209.6,327.6L209.3,327.4L208.6,326.4L208.2,326.0L208.1,326.0L207.7,326.0L207.3,326.0L207.0,325.6L206.8,325.0L206.5,324.7L206.1,324.5L205.6,324.6L205.3,325.1L205.1,325.4L204.8,326.0L204.2,327.0L204.0,327.3L203.7,327.1L202.6,326.2L202.1,325.9L201.4,326.2L200.2,326.0L199.8,325.9L198.9,325.2L198.5,325.1L197.2,325.6L196.9,325.9L196.7,325.9L196.4,325.8L196.1,325.5L196.0,325.4L196.4,325.0L196.4,324.7L196.4,324.5L196.9,323.7L198.3,322.2L198.1,321.6L197.5,320.4L197.5,319.8L197.2,319.6L196.6,319.8L195.2,320.9L195.0,320.8L195.0,320.4L194.9,319.3L195.3,319.0L196.0,318.5L196.5,318.1L196.6,317.7L196.5,317.6L195.7,317.8L195.4,317.5L194.9,316.5L194.5,316.1L194.2,315.9L193.1,316.4L191.7,317.1L190.2,318.1L190.3,318.6L190.1,318.8L189.8,319.1L189.5,319.5L189.3,319.7L189.0,319.7L188.5,319.6L187.4,319.1L186.3,318.6L186.1,318.7L184.6,318.4L184.5,318.2L184.3,317.7L183.9,317.3L183.5,317.1L182.3,318.0L181.0,318.7L180.2,319.5L179.6,320.3L178.9,320.4L178.8,320.9L178.5,321.3L178.0,321.9L176.9,322.6L176.2,322.9L173.9,323.3L173.1,323.5L172.7,323.8L172.3,324.8L172.1,325.6L171.4,326.3L170.3,327.2L168.9,328.0L168.5,328.5L168.5,328.8L168.6,328.9L168.8,329.1L168.8,329.4L168.6,329.8L167.7,330.5L167.2,330.8L166.7,331.0L166.2,331.0L165.6,330.9L165.5,330.8L165.3,331.0L164.8,331.1L164.3,331.1L163.4,331.9L162.9,331.9L162.2,331.7L161.4,331.6L160.8,331.6L160.8,331.2L160.8,330.1L160.6,329.8L159.7,329.5L158.8,329.1L158.3,328.7L158.1,328.6L157.7,328.7L157.1,329.1L156.6,329.6L156.1,329.6L155.7,329.4L155.3,329.1L153.8,328.7L153.2,328.6L152.0,328.7L151.1,328.6L150.9,328.5L150.9,328.2L151.1,327.8L151.1,327.3L151.0,327.1L150.1,326.8L149.2,326.5L148.3,326.4L147.6,326.6L147.0,327.0L146.5,327.6L145.8,327.9L144.9,328.3L144.5,328.8L143.8,329.7L142.9,330.9L142.0,332.0L141.6,333.1L141.0,333.8L140.4,334.3L140.0,335.7L139.5,335.3L139.0,334.6L138.9,333.8L139.5,331.5L139.6,330.6L139.5,330.2L139.3,329.3L139.0,329.0L137.9,328.5L137.6,328.5L137.2,328.8L136.9,329.0L136.4,329.2L135.3,329.6L134.3,329.8L134.0,330.0L134.0,330.2L134.0,330.5L133.4,330.4L132.7,330.4L132.2,330.4L130.8,331.0L130.4,331.1L129.8,331.0L129.2,331.0L127.8,331.0L126.7,330.8L125.8,330.0L125.1,329.6L124.4,329.4L123.7,329.1L123.5,328.7L123.3,328.5L122.7,328.4L122.2,328.5L122.0,329.7L121.7,329.9L121.1,330.0L120.5,329.7L119.7,329.1L119.4,328.5L119.1,328.3L118.6,328.6L118.6,329.4L118.5,329.9L118.0,330.2L117.7,330.0L117.4,329.4L116.8,328.1L116.2,327.3L115.6,326.8L113.6,326.8L112.1,326.6L111.4,326.4L111.1,325.9L111.4,324.8L111.7,324.0L111.7,323.8L111.4,323.7L111.0,323.7L109.3,324.2L108.9,324.1L108.6,324.0L108.3,323.8L108.0,323.6L107.8,323.2L106.4,322.3L106.0,321.9L105.2,321.3L104.6,320.9L104.2,319.7L103.8,318.6L103.6,318.0L103.0,317.7L102.4,317.4L101.3,317.9L100.4,318.3L99.7,318.3L98.7,317.2L98.0,316.0L97.1,314.9L96.5,314.3L95.4,314.3L94.2,313.7L92.5,312.3L91.4,311.3L89.3,310.1L88.9,309.7L88.7,309.3L88.4,308.5L88.0,307.7L86.6,307.4L85.0,307.1L83.3,307.6L82.0,309.9L81.4,310.4L80.9,310.4L80.5,309.8L80.2,309.2L80.0,308.5L79.1,308.0L78.2,307.4L77.7,306.9L77.1,306.6L76.6,306.4L75.6,306.0L74.5,305.5L74.0,305.5L73.9,305.1L74.1,304.4L74.0,303.7L73.6,303.4L73.1,303.5L71.9,302.5L71.9,302.5L71.9,302.4L71.5,302.2L70.9,301.7L70.0,301.8L69.2,301.9L68.7,301.5L67.9,300.8L67.7,300.7L67.5,300.5L66.7,299.2L65.7,297.7L65.3,297.5L65.0,297.6L64.7,298.4L64.5,298.3L64.2,298.4L63.8,298.6L63.3,298.7L63.1,298.6L63.0,298.4L63.1,297.4L62.8,297.1L63.1,296.3L63.4,295.7L63.0,295.2L62.6,294.6L62.5,294.0L62.8,293.2L62.9,292.5L62.8,292.3L62.5,291.9L61.1,290.1L61.0,289.9L60.8,289.4L60.7,288.4L60.5,287.8L60.3,287.3L60.3,287.1L60.5,287.0L61.3,286.8L62.1,286.8L62.7,286.6L62.9,287.0L63.0,287.5L63.2,287.8L63.7,288.3L64.3,288.8L64.9,288.8L65.4,288.5L65.9,287.7L66.2,287.5L66.6,287.5L66.6,287.4L66.6,286.9L66.7,285.6L66.6,285.1L66.5,284.6L66.5,284.1L66.5,283.3L66.0,282.8L65.7,282.6L65.7,282.4L65.9,281.8L65.9,281.2L65.8,280.7L65.4,280.5L65.0,280.1L64.5,279.6L64.3,279.2L63.9,278.8L63.4,278.2L63.3,276.8L63.3,275.3L63.1,274.6L62.8,273.4L62.9,273.0L63.0,272.7L64.4,271.8L64.7,271.4L64.7,271.1L64.7,270.7L64.4,270.3L63.9,269.9L63.1,269.3L62.4,268.7L61.2,268.4L59.8,267.9L59.5,267.5L59.1,266.4L58.5,264.7L57.9,263.0L57.4,261.9L57.4,261.4L57.7,260.1L57.7,259.8L57.4,259.7L56.9,259.9L56.5,260.1L56.2,260.0L55.9,259.7L55.8,259.7L55.8,259.6L55.2,259.8L54.1,259.9L53.7,259.8L53.1,259.8L52.0,259.5L50.4,259.1L48.8,258.6L48.0,258.1L47.7,257.9L46.9,257.5L46.4,257.1L46.3,256.0L46.0,256.1L45.1,256.5L44.1,256.7L43.5,256.7L43.3,256.5L42.9,255.4L42.7,255.1L42.2,255.0L41.7,254.8L41.5,254.5L41.4,254.1L41.6,253.7L41.9,253.4L41.9,251.4L41.8,250.7L41.6,250.1L41.3,249.4L40.9,248.9L40.4,248.5L39.6,248.1L38.9,247.9L38.0,248.2L37.8,248.1L37.4,246.7L37.2,246.5L35.7,245.9L35.0,245.8L34.2,245.9L33.7,246.1L33.4,245.8L32.8,245.5L32.2,245.3L31.5,245.3L31.1,245.4L31.0,245.4L30.7,245.1L29.8,244.4L29.8,244.2L31.2,243.5L32.1,243.2L32.5,243.0L32.6,243.0L32.8,243.3L33.3,243.6L33.7,243.5L33.9,243.3L34.6,242.9L35.2,242.5L35.5,242.1L35.3,241.5L34.5,240.7L33.9,240.3L33.8,240.1L33.9,239.3L34.1,238.5L34.0,238.2L33.8,237.9L33.7,237.0L33.4,236.0L33.0,235.4L32.9,234.6L32.8,233.8L33.3,232.6L33.1,232.1L32.6,231.6L30.9,230.8L29.1,230.2L28.4,230.2L28.0,230.2L27.5,230.7L27.2,231.3L26.8,231.4L26.0,231.1L25.5,230.7L25.1,229.8L24.8,228.8L24.7,228.4L24.7,228.1L24.9,227.8L25.4,227.6L25.5,227.3L25.4,227.0L25.0,226.6L24.6,226.1L24.0,224.9L24.1,224.3L24.2,223.4L24.2,222.9L24.8,222.8L25.6,222.5L26.0,222.1L26.3,221.7L26.3,221.4L26.1,220.4L25.7,220.0L25.7,219.6L25.9,219.4L26.1,218.9L26.5,218.0L26.9,217.4L27.1,217.2L27.6,217.1L28.8,216.9L30.1,216.5L31.6,215.2L32.1,214.9L32.8,214.7L33.3,214.7L33.4,214.5L33.0,213.8L33.1,213.5L33.3,213.3L33.5,213.2L34.6,213.6L35.4,213.5L36.4,213.3L38.5,211.9L38.8,211.9L39.0,212.1L39.2,212.9L39.5,214.7L39.7,214.9L41.2,214.9L42.2,214.3L42.6,214.2L43.3,214.3L43.7,214.0L44.1,213.8L44.6,214.5L45.2,214.1L45.8,213.6L46.1,213.0L46.5,212.4L46.9,211.6L47.0,210.8L47.2,210.5L47.5,210.2L48.4,208.6L49.1,208.2L49.6,208.1L51.1,208.4L51.9,208.3L54.2,208.5L55.2,208.2L55.9,207.9L57.0,208.0L58.3,207.7L60.0,205.8L60.0,205.4L60.1,205.0L60.7,204.6L61.5,204.2L63.0,203.2L66.0,201.8L67.1,201.2L67.6,201.2L68.7,200.8L70.7,200.1L71.3,199.2L71.8,199.0L74.2,198.9L74.3,198.8L74.4,198.6L74.2,198.0L74.1,197.4L74.3,197.2L74.5,197.0L74.4,196.6L74.1,195.4L73.9,194.3L73.7,193.4L73.7,193.0L74.0,192.3L74.4,191.8L75.7,191.2L76.6,191.0L76.6,190.7L75.9,190.5L75.4,190.1L75.3,189.9L75.4,189.7L75.5,189.5L76.3,189.1L77.2,188.7L78.2,188.9L78.4,188.7L78.5,188.4L78.3,188.0L78.0,187.3L77.6,187.0L77.5,186.6L77.8,185.9L77.4,184.6L77.0,183.5L76.3,181.6L75.8,181.0L75.5,180.1L75.2,179.7L75.2,179.0L75.3,178.5L75.2,177.5L75.1,176.5L75.2,175.4L75.5,174.7L75.4,174.5L75.6,174.3L76.0,174.2L76.2,173.9L76.0,173.6L75.3,173.4L74.4,173.0L73.5,173.1L72.5,173.2L72.0,172.9L71.6,172.6L71.5,172.3L72.1,171.8L73.0,171.2L74.2,170.9L75.7,170.6L76.4,170.3L77.3,170.1L78.4,170.0L79.0,170.1L80.4,169.7L82.6,169.0L84.7,168.4L85.3,168.0L85.9,168.4L86.1,169.2L86.7,169.6L87.3,169.8L87.6,169.8L88.6,169.4L89.7,169.2L90.1,169.3L90.7,169.7L91.3,170.1L91.6,170.1L91.9,169.8L92.2,169.2L92.4,168.5L92.4,167.8L92.3,167.3L92.1,167.2L91.1,166.9L90.2,166.4L90.1,166.0L90.1,165.7L90.3,165.0L90.9,163.7L91.6,161.9L91.9,160.5L92.9,158.4L93.7,156.2L95.1,153.0L95.3,152.3L95.4,151.3L95.5,150.9L96.0,150.7L96.7,150.9L98.6,151.7L100.1,152.3L100.7,152.5L101.6,152.7L103.0,152.9L103.8,152.9L104.5,152.7L105.4,152.7L106.9,152.9L107.4,152.9L107.9,152.9L108.3,153.2L108.5,153.9L108.8,154.2L109.4,154.1L110.5,153.5L111.3,153.0L112.2,152.3L113.1,152.2L114.1,152.1L114.5,151.7L114.8,150.9L115.4,150.3L115.5,149.5L115.3,149.0L114.9,148.1L114.9,147.5L114.7,145.7L114.4,144.1L114.7,142.9L115.2,141.5L115.4,141.0L115.7,140.5L116.1,139.8L116.8,139.6L118.5,139.4L120.1,139.1L120.9,138.9L121.7,138.7L122.2,138.4L123.1,137.5L123.5,136.9L123.8,135.4L123.6,134.6L123.7,134.0L124.2,133.6L124.8,133.2L125.2,133.2L126.0,133.0L127.4,133.1L128.1,133.3L128.8,133.3L129.2,133.2L129.5,132.9L130.0,132.8L130.7,132.7L131.4,132.5L131.8,132.6L131.9,133.0L131.8,133.3L132.0,133.8L132.2,134.1L132.2,134.4L131.7,134.6L131.4,134.8L131.3,135.2L131.8,135.6L131.9,136.0L132.8,136.3L133.4,136.5L133.7,136.8L133.6,137.1L133.3,137.4L133.0,137.8L133.0,138.0L133.1,138.2L133.7,138.4L134.4,138.6L135.6,139.0L136.4,139.6L137.1,139.8L137.5,140.4L137.6,141.3L138.4,141.8L139.6,142.4L140.2,142.5L140.6,142.9L141.2,143.3L141.7,143.5L142.3,143.5L143.3,143.1L144.5,143.1L145.1,143.3L145.7,144.2L146.1,144.5L146.3,144.7L146.7,145.0L147.1,145.0L147.7,144.8L148.1,144.4L148.6,144.5L148.8,144.8L148.9,145.2L149.2,145.7L149.8,146.1L150.8,146.4L150.9,146.6L151.0,147.1L151.3,147.5L151.6,148.0L151.9,148.9L152.0,149.6L152.2,150.0L152.6,150.7L153.3,151.7L153.8,152.6L154.5,152.8L155.0,153.1L155.3,153.8L155.9,155.0L156.0,155.8L156.0,156.4L156.2,156.7L156.2,157.0L155.8,158.4L155.4,159.0L155.3,159.5L155.6,160.3L156.0,161.0L156.0,161.6L155.7,162.1L155.1,162.7L154.9,163.0L154.4,163.3L153.8,164.5L153.5,165.7L153.4,166.4L153.7,166.8L154.1,167.4L154.2,167.8L154.9,168.8L155.1,169.4L155.3,169.5L155.6,169.2L156.4,169.2L157.0,169.5L157.7,169.9L158.4,170.2L159.3,170.1L159.9,170.3L160.4,170.6L161.6,170.6L162.5,170.6L163.8,170.6L164.9,170.9L166.8,171.2L168.0,171.2L169.6,170.9L170.5,171.1L173.4,171.4L175.1,171.8L176.1,172.2L176.9,172.8L177.8,173.8L178.4,174.3L180.3,174.6L181.5,175.7L182.5,176.2L184.1,177.3L185.3,177.7L186.7,178.1L189.0,178.0L189.1,178.1L189.0,178.7L188.8,179.6L188.8,180.2L189.0,180.5L189.9,180.7L190.3,181.0L190.7,181.6L190.8,181.9L191.6,183.7L192.7,186.3L192.9,187.3L193.3,187.9L194.5,189.0L195.2,189.7L196.2,190.5L196.5,191.3L196.6,192.2L196.9,192.5L198.7,192.2L200.2,192.1L203.1,191.8L207.0,192.3L211.0,192.8L214.5,193.2L216.3,193.4L220.2,193.9L222.5,193.3L224.1,192.9L224.9,192.9L228.2,193.4L230.2,193.7L232.6,194.0L234.3,194.2L235.6,194.2L236.3,194.3L236.9,194.5L237.3,194.8L238.5,196.4L239.3,197.2L240.6,197.7L243.8,198.3L245.6,198.7L247.6,199.1L248.9,199.7L250.5,200.5L252.4,201.5L254.6,201.1L257.0,200.6L258.4,200.3L258.4,202.3L260.5,202.5L261.2,202.5L262.1,202.9L262.6,202.7L263.1,202.3L263.7,201.6L264.6,201.3L266.2,200.5L266.5,200.3L268.8,199.2L272.2,197.9L273.8,197.2L274.2,197.0L275.1,196.7L275.7,196.5L276.7,196.3L278.1,196.2L279.6,195.9L283.1,195.4L283.5,195.4L285.5,195.2L286.3,195.0L287.5,195.1L289.1,195.2L290.2,195.3L291.6,195.2L293.6,195.1L295.1,195.1L295.9,194.9L297.1,194.4L297.9,194.0L299.1,193.5L300.6,193.0L301.7,192.6L302.4,192.3L303.2,192.0L303.4,191.6L303.7,191.3L304.1,190.8L304.9,189.9L305.6,189.2L305.9,188.8L306.5,188.1L307.1,187.5L307.8,186.7L308.4,186.4L309.2,186.2L311.2,185.4L311.6,185.3L311.9,185.2L312.6,184.6L313.2,184.1L313.6,183.7L314.4,183.5L314.8,183.2L314.9,182.9L314.8,182.3L314.4,181.7L314.1,181.2L312.9,180.2L312.3,179.6L311.7,178.8L311.5,178.0L311.0,177.6L310.8,177.1L310.9,176.7L311.5,175.8L311.7,175.3L311.9,174.3L312.5,172.9L312.9,172.2L313.5,171.5L314.6,170.7L315.6,170.5L316.2,170.7L317.6,170.7L318.5,170.7L319.1,171.2L319.9,172.0L320.7,172.3L323.3,173.0L324.4,173.2L325.2,173.2L326.4,173.4L326.8,173.5L327.4,173.6L327.9,173.5L328.6,172.9L329.6,172.2L330.0,172.1L330.7,171.8L331.1,171.5L331.8,170.8L332.7,170.2L333.7,169.4L334.2,168.7L334.3,168.3L334.5,167.9L334.8,167.6L335.4,167.4L336.1,167.4L337.5,167.7L339.4,167.6L339.8,167.6L341.5,167.4L342.2,167.2L343.3,167.0L344.1,166.3L345.2,165.4L346.0,165.0L346.5,164.9L347.2,164.4L347.5,163.9L347.4,163.4L347.3,163.0L347.7,162.3L348.4,161.1L349.1,160.5L349.6,160.0L350.0,159.3L350.4,159.0L350.9,159.0L351.7,158.5L352.2,158.4L353.1,158.6L354.5,158.7L355.3,158.7L355.8,158.6L356.0,158.3L356.0,157.9L356.3,157.0L356.4,156.7L356.6,156.5L357.4,156.5L358.0,156.8L358.4,157.1L358.9,157.1L359.5,157.0L360.2,156.2L361.4,155.8L362.1,155.7L363.2,155.3L363.9,155.4L365.3,155.5L365.8,155.4L366.4,155.5L366.9,155.0L367.3,154.9L368.1,155.1L368.7,155.5L369.7,156.0L371.0,156.3L372.1,156.1L373.2,156.4L373.8,156.3L374.1,156.1L375.1,155.7L375.3,155.2L375.2,154.6L375.3,154.0L375.0,153.5L374.5,152.9L374.2,152.4L374.2,151.8L373.9,151.3L373.0,150.6L372.5,150.3L371.3,149.1L370.9,148.8L370.8,148.7L370.7,148.3L370.3,148.1L369.7,147.8L369.4,147.5L369.2,146.9L369.1,146.6L368.6,146.3L368.1,146.1L367.5,145.9L366.6,145.6L366.1,145.0L365.2,143.9L364.7,143.5L362.7,143.4L362.0,143.1L361.2,143.2L360.7,143.4L359.7,143.4L359.1,143.5L358.4,144.2L357.5,145.2L356.8,145.8L356.2,146.4L356.0,146.6L355.5,146.5L354.8,145.8L353.8,145.2L352.9,144.9L352.5,144.7L351.5,144.6L350.6,144.6L349.6,144.9L348.6,144.8L348.1,144.7L347.5,144.7L346.3,145.3L345.7,146.1L344.9,146.3L344.3,145.8L343.5,145.2L342.8,144.5L342.4,143.9L342.1,142.1L343.0,141.6L344.1,141.1L344.2,140.1L344.1,139.1L344.4,138.0L345.4,137.0L345.9,136.1L346.0,135.6L346.5,134.7L346.9,133.7L347.5,132.5L348.8,130.3L350.2,127.7L350.9,126.4L352.4,127.2L353.4,127.6L355.1,128.3L356.9,128.4L358.6,129.1L359.5,129.3L359.9,129.3L362.3,127.6L364.3,126.2L366.6,125.1L368.3,125.0L369.6,124.6L370.4,124.1L370.9,123.3L371.1,122.2L370.7,121.5L369.9,121.2L369.7,121.0L370.1,120.7L370.4,120.3L370.6,119.5L371.1,118.9L371.9,118.2L372.3,117.5L372.4,116.7L372.8,116.0L373.7,115.2L374.1,114.5L374.2,113.8L374.7,113.0L375.8,111.5L376.6,109.9L377.8,108.7L379.9,107.6L381.2,106.4L381.8,105.3L381.7,104.3L381.1,103.4L381.0,102.5L381.4,101.6L381.0,100.9L380.0,100.4L378.8,100.3L377.4,100.6L376.6,100.3L376.4,99.5L376.8,98.9L377.7,98.4L379.3,97.2L381.4,95.3L383.5,94.2L386.7,93.9L389.3,93.3L391.9,92.7L393.8,92.4L394.1,92.6L395.1,92.6L396.9,92.5L398.5,92.2L400.0,91.8L401.2,91.7L402.1,91.9L402.5,91.9L402.9,92.0L403.1,92.0L403.4,91.8L404.5,92.1L406.4,93.1L407.6,93.5L408.1,93.4L408.6,93.7L409.2,94.3L409.9,94.7L411.3,94.9L412.6,95.6L413.1,95.7L413.3,95.3L413.8,95.0L414.6,95.0L415.7,95.3L417.2,96.1L418.1,96.4L418.5,96.3L418.9,96.5L419.3,96.8L419.3,97.3L419.2,97.5L419.5,97.9L419.9,97.9L420.6,98.1L421.1,98.7L421.6,99.0L422.0,99.3L422.0,99.5L422.0,99.7L421.9,99.9L421.8,100.2L421.7,100.5L421.9,100.8L422.8,101.1L423.1,101.3L423.1,101.7L423.4,102.0L424.0,102.5L424.2,102.8L424.0,103.1L424.2,103.3L424.5,103.5L424.6,104.2L424.6,104.6L425.1,105.0L425.1,105.9L425.5,106.9L426.6,108.2L426.9,108.9L426.8,109.8L427.0,110.2L427.5,110.4L427.7,110.8L427.7,111.3L427.9,111.6L428.0,112.0L427.9,112.5L428.1,113.0L428.3,113.3L428.5,113.9L428.6,114.5L429.3,115.6L430.7,117.1L431.5,118.2L431.8,119.0L431.8,119.7L431.5,120.2L431.5,120.5L431.8,120.8L431.8,121.1L431.7,121.5L432.2,122.0L433.7,122.8L433.1,124.1L432.9,125.0L433.0,125.9L433.4,126.6L434.0,127.0L434.4,127.4L434.6,127.8L435.4,128.3L436.8,128.8L438.6,128.9L440.8,128.5L442.1,128.5L442.6,128.7L442.8,129.0L442.6,129.5L443.0,129.7L443.9,129.9L444.5,130.2L444.9,130.6L445.3,130.7L445.8,130.5L446.2,130.5L446.7,130.8L447.0,130.7L447.3,130.4L447.7,130.4L448.1,130.5L448.4,131.1L448.9,131.4L449.5,131.5L450.4,132.2L452.2,134.3L453.4,135.1L454.6,135.3L456.1,135.4L456.6,136.2L456.2,137.0L456.1,137.8L456.5,138.0L456.9,138.9L457.6,139.4L457.7,139.8L458.1,140.2L457.9,141.0L457.3,142.2L457.5,143.2L458.4,144.0L458.9,144.8L459.0,145.6L459.2,146.1L459.6,146.2L460.5,146.2L462.0,145.9L463.1,145.9L463.8,146.3L465.5,146.3L468.2,146.0L470.0,145.9L470.7,146.0L471.4,145.5L472.0,144.4L472.5,143.9L473.0,143.9L473.8,143.6L474.9,142.8L475.8,142.4L477.0,142.4L478.3,142.5L479.1,142.1L479.8,141.4L481.1,140.8L483.9,140.0L484.5,139.9L484.8,139.9L485.8,140.1L486.6,140.4L487.3,141.0L487.5,141.4L487.4,141.9L487.2,142.2L486.9,142.6L486.6,143.2L486.8,143.6L487.2,144.5L487.6,145.2L488.0,146.0L487.8,146.3L487.6,146.9L486.8,147.8L486.4,148.2L486.0,148.5L485.2,148.6L484.9,148.7L484.5,148.8L484.3,149.2L484.0,149.4L483.6,149.9L483.5,150.3L483.7,150.9L483.8,151.5L483.3,152.0L482.9,152.9L482.8,153.1L482.6,153.8L482.6,154.0L482.5,155.3L482.0,156.3L481.3,157.3L481.4,158.0L481.6,158.5L481.4,158.8L481.4,159.1L481.3,159.7L481.0,159.9L480.4,160.2L480.0,160.7L480.1,161.3L479.9,161.9L479.6,162.4L479.3,162.7L478.9,162.9L478.6,163.1L478.4,163.7L478.3,164.2L478.1,164.7L478.2,165.2L478.0,165.6L477.4,165.9L477.1,166.1L476.7,166.2L476.1,166.7L475.6,168.3L475.4,169.2L475.6,170.0L474.8,170.6L474.2,171.0L473.9,170.8L473.5,170.7L472.6,170.5L472.2,170.4L471.3,170.1L469.9,169.8L468.5,169.4L467.6,169.2L467.0,169.0L466.4,168.7L466.0,168.2L465.6,168.4L465.2,169.0L464.5,169.3L464.2,170.0L463.9,170.5L463.2,171.1L462.9,171.4L461.6,171.9L461.3,172.0L460.2,172.1L459.8,172.3L459.4,172.7L459.3,173.1L459.6,173.6L460.0,174.4L460.2,175.0L460.5,176.2L461.5,179.9L461.1,180.5L460.8,183.3L460.9,183.8L460.9,184.6L460.9,185.2L461.1,185.3L461.4,185.5L461.5,185.8L461.5,186.3L461.4,186.7L461.1,187.5L460.9,188.5L460.6,189.0L460.4,189.3L460.2,189.5L460.2,190.3L460.1,190.8L459.6,190.9L459.1,191.2L458.5,191.1L458.0,191.2L457.4,191.4L456.3,191.6L455.7,191.9L455.4,192.1L455.2,192.4L455.1,192.7L455.3,192.8L455.9,192.9L456.3,193.4L456.4,193.9L456.0,194.2L455.7,193.9L455.4,193.8L454.7,193.3L454.2,192.8L453.8,192.2L453.8,191.0L453.8,190.9L453.1,190.6L452.9,190.3L452.6,190.1L452.1,190.2L451.8,190.1L451.5,189.9L451.2,189.9L450.9,190.2L450.7,190.8L450.3,191.9L450.2,192.6L450.0,193.5L449.8,194.7L449.6,195.0L449.1,195.0L448.9,195.1L448.7,195.5L448.3,195.6L448.0,195.4L447.6,195.1L447.1,195.1L446.7,195.3L446.3,195.8L446.0,196.3L445.9,196.6L445.8,197.1L445.4,197.6L444.9,197.8L444.1,198.5L443.8,198.8L443.1,198.8L442.5,198.8L441.5,199.0L440.0,199.1L439.1,198.9L438.0,199.0L437.1,199.3L437.0,199.6L437.0,200.1L437.2,200.4L437.4,200.6L437.8,201.3L438.1,202.0L438.7,202.4L439.0,202.8L439.0,203.2L438.7,203.7L438.3,204.4L437.9,204.9L437.6,204.8L437.2,204.6L436.9,204.3L436.1,204.2L434.4,204.4L433.5,204.2L433.1,204.0L432.4,204.0L431.2,203.6L430.5,203.5L430.2,203.3L430.2,202.8L429.8,202.5L429.6,202.1L429.2,201.6L428.8,201.3L428.4,201.2L428.0,201.5L427.6,201.8L427.2,201.7L427.1,201.8L426.9,202.0L426.1,202.5L426.0,202.9L425.7,203.8L425.5,204.8L425.3,205.1L425.0,205.2L424.7,205.5L424.1,206.4L423.5,207.2L422.7,207.7L422.3,208.2L422.1,208.7L421.5,209.3L420.6,209.5L419.9,209.7L419.5,209.7L419.2,210.0L419.0,210.3L418.9,210.5L418.5,210.5L418.1,210.8L417.2,211.6L416.4,211.8L415.4,212.3L414.6,212.7L414.2,212.9L414.1,213.1L414.0,213.4L413.6,213.5L413.2,213.5L412.3,214.2L411.8,214.8L410.1,216.1L409.3,216.8L409.2,217.7L409.1,217.6L408.4,218.5L407.2,219.2L404.6,219.4L403.8,218.9L403.5,219.2L403.2,219.7L402.5,219.9L401.5,220.0L400.9,220.3L400.5,220.7L399.1,220.8L398.5,221.3L397.6,221.5L393.8,223.7L393.0,224.6L392.2,225.6L391.6,226.2L391.1,226.6L390.7,226.7L390.2,227.1L389.8,227.1L389.3,227.0L388.8,227.0L388.4,227.5L388.7,228.1L388.6,228.3L387.6,228.6L386.1,228.8L385.4,229.2L385.2,229.4L384.9,229.6L384.6,228.8L384.5,227.8L385.1,227.6L385.6,227.4L388.8,226.0L388.4,225.0L388.7,224.6L389.4,223.8L389.9,223.5L389.6,223.3L387.5,223.6L386.3,223.6L385.7,223.5L385.9,222.8L385.8,222.2L385.7,222.0L386.7,221.3L387.2,221.1L387.6,221.1L387.5,220.7L387.2,220.0L387.6,219.2L389.7,218.2L390.2,217.3L391.1,216.5L392.7,214.4L392.8,214.1L393.2,213.1L393.3,212.7L392.6,212.2L392.3,211.4L390.2,209.9L390.0,208.7L389.8,208.8L389.5,209.6L389.2,209.9L388.2,209.9L387.7,209.6L385.0,209.4L384.3,209.9L383.7,210.8L383.1,211.4L382.4,211.7L381.9,212.3L379.7,215.6L378.9,215.9L374.9,217.9L373.0,218.7L371.4,220.1L370.9,220.9L370.4,221.8L370.2,223.3L368.8,225.0L368.3,225.4L367.8,225.5L367.2,225.5L366.6,225.6L365.6,225.4L364.5,226.0L363.1,226.4L362.0,225.2L361.2,224.9L359.9,225.3L359.2,225.8L358.0,228.4L357.5,229.9L357.5,230.5L358.3,232.4L359.1,233.4L361.0,234.6L365.0,235.5L365.9,235.2L366.9,235.2L368.0,236.0L368.7,237.2L368.7,238.1L368.7,238.4L369.0,238.7L369.1,239.1L368.7,239.5L368.4,239.7L368.1,241.1L368.1,242.6L368.4,243.1L369.3,243.8L370.7,244.4L371.9,244.5L374.2,244.2L375.2,243.3L375.1,242.9L375.2,242.4L377.2,241.1L378.4,239.9L378.2,239.6L378.0,239.3L378.2,239.2L378.9,239.1L381.8,237.9L384.0,238.9L385.3,240.1L386.6,240.3L387.5,240.9L388.5,241.4L389.8,241.4L391.0,241.5L391.3,241.0L391.7,240.7L392.1,240.8L392.5,241.4L393.8,241.9L395.0,241.9L395.8,241.7L396.3,241.9L395.6,242.7L395.7,244.0L395.1,244.4L394.6,245.0L394.9,245.4L395.2,245.6L395.2,246.2L394.7,246.4L393.8,247.2L393.3,247.2L393.1,247.1L392.9,246.8L392.8,246.3L392.5,246.0L391.6,245.9L390.7,246.0L388.7,247.2L386.8,248.1L384.7,248.8L384.0,249.3L383.6,249.4L382.7,249.0L382.2,249.1L382.1,249.3L382.8,249.9L382.9,250.4L382.8,250.8L382.5,251.0L381.9,250.7L381.5,251.1L381.2,251.8L381.2,253.4L380.9,253.7L380.0,253.9L379.0,254.5L378.7,254.2L378.6,253.9L378.7,253.2L378.6,252.8L378.1,252.9L377.4,253.1L376.9,253.6L376.8,253.9L377.4,254.8L378.1,254.9L378.2,255.1L377.7,255.6L376.5,256.2L376.3,256.8L375.9,257.4L375.4,257.8L375.0,258.3L374.6,258.5L373.9,258.8L373.1,259.9L372.5,260.9L371.7,261.4L371.2,263.2L370.1,264.1L369.7,265.7L370.0,266.6L371.1,266.6L371.7,266.9L372.9,268.1L374.3,268.9L375.8,269.4L377.6,270.5L378.1,271.0L378.5,272.0L379.3,274.8L379.8,276.2L379.9,276.9L380.7,278.3L381.6,280.6L382.7,282.7L382.9,284.3L382.5,285.0L382.5,286.0L383.6,286.9L385.9,287.9L386.2,288.2L386.7,288.7L386.7,290.2L387.1,290.7L387.4,291.0L388.8,291.7L389.3,292.2L390.0,293.1L390.1,293.9L390.2,294.9L389.4,294.9L388.8,294.8L386.3,293.5L385.7,293.4L384.8,293.6L383.4,293.4L382.1,291.9L381.1,291.4L380.0,291.2L377.5,292.5L376.8,292.4L376.6,292.5L376.3,292.7L377.5,293.0L378.7,292.6L379.8,292.0L381.5,292.3L381.8,292.9L382.0,293.8L383.2,294.5L384.1,294.8L385.2,295.6L386.3,296.9L388.7,298.5L389.6,299.9L390.0,300.9L390.3,302.2L389.5,302.7L388.8,302.7L387.7,302.9L386.8,303.4L386.0,304.2L383.6,305.6L383.2,306.4L382.9,307.1L382.3,307.4L380.8,307.1L379.5,307.1L377.9,308.1L377.5,308.5L377.8,308.4L378.0,308.3L378.7,308.4L379.8,307.9L380.9,309.5L382.9,309.3L384.9,307.9L385.6,307.9L386.2,308.1L386.9,308.6L388.8,310.9L389.8,311.2L390.8,311.7L391.4,311.8L391.9,312.0L390.5,312.8L388.8,314.6L388.0,315.1L387.5,315.5L388.9,315.3L389.9,314.4L390.4,314.2L390.8,314.4L391.0,315.5L390.6,318.8L390.1,318.8L389.6,317.9L389.1,317.7L388.6,317.8L387.7,317.8L387.4,318.2L387.1,318.8L387.6,318.9L388.7,319.9L388.8,320.5L388.5,320.8L387.7,320.7L388.7,321.4L388.4,322.2L388.1,322.5L387.6,322.7L387.2,323.4L387.7,324.5L388.2,325.9L388.3,326.6L387.5,326.3L386.3,327.2L385.7,327.3L385.3,326.1L384.8,326.3L384.4,326.6L383.9,327.9L383.3,329.0L382.8,329.3L382.2,329.2L381.7,329.3L381.9,329.5L382.4,329.9L382.4,330.4L381.3,331.7L381.1,332.2L381.1,332.7L380.5,333.2L380.8,334.2L380.7,334.8L380.1,335.7L379.6,336.3L379.0,337.2L378.2,337.7L377.1,339.7L376.8,340.7L376.7,341.7L376.4,342.0L375.8,342.5L375.2,342.3L375.1,341.6L374.9,341.5L374.7,341.1L374.7,340.5L374.7,340.1L374.5,340.2L374.3,340.7L373.9,341.2L373.4,341.0L372.9,340.6L373.0,341.2L373.2,341.7L373.3,342.2L374.0,342.3L374.4,342.9L374.8,343.8L374.8,344.1L375.1,344.5L375.1,344.8L374.5,345.2L373.7,345.7L372.8,346.8L372.0,347.4L371.3,347.4L370.9,347.4L370.2,347.0L369.5,346.8L370.5,348.2L371.0,348.4L371.6,348.4L372.3,347.9L373.2,347.9L373.4,348.7L373.1,349.6L372.7,350.7L372.6,351.7L373.2,353.2L373.2,353.6L373.0,353.8L372.2,353.4L371.7,353.0L371.1,353.1L370.5,352.9L369.8,353.0L369.6,353.4L369.8,353.9L370.3,354.4L370.6,355.1L370.3,355.3L368.7,355.2L368.3,355.3L367.8,356.1L368.1,357.2L367.8,357.9L367.1,358.1L366.2,358.6L365.7,358.8L365.7,359.0L366.1,359.3L366.3,359.6L365.9,360.8L365.1,361.1L364.0,360.9L363.1,361.2L362.4,360.7L361.5,360.7L361.0,361.3L360.9,362.1L360.4,362.1L360.1,362.1L359.7,362.1L359.7,362.5L360.0,362.8L361.1,363.0L361.3,363.5L361.3,364.3L360.1,365.5L359.7,366.4L358.9,366.4L358.4,367.1L358.1,368.1L357.7,367.9L356.8,368.0L356.6,368.5L356.8,368.7L356.8,369.0L356.5,370.1L356.1,370.4L355.9,369.9L355.8,369.2L355.5,369.2L355.0,369.8L354.4,370.3L353.9,370.5L353.5,370.0L352.6,369.8L352.2,371.6L351.5,372.3L351.1,372.5L350.5,372.6L350.9,372.8L351.0,373.3L350.8,373.7L350.1,373.8L349.8,374.2L349.7,375.8L349.3,376.3L348.3,376.4L347.6,376.0L347.4,376.3L347.3,376.6L346.9,376.9L346.2,377.0L344.6,377.7L343.9,377.5L343.0,377.2L342.4,377.5L342.2,378.0L341.9,378.4L341.0,378.4L340.3,377.9L339.6,377.5L338.8,377.9L338.2,378.5L337.5,378.8L337.3,379.2L337.0,379.4L336.2,379.3L335.9,378.3L335.5,378.1L335.0,378.6L334.9,379.1L334.7,379.4L334.7,380.2L334.3,380.2L333.7,379.7L333.1,379.6L332.6,380.1L332.2,380.0L331.9,379.9L331.5,379.9L331.3,380.0L330.9,380.1L330.7,380.3L330.6,380.4L330.0,380.2L329.2,379.5L328.7,378.3L328.0,377.7L327.6,377.1L327.5,376.1L327.4,375.6L327.4,375.1L327.6,374.6L326.9,374.9L326.3,375.3L326.4,375.9L326.3,376.4L325.4,376.7L325.5,376.9L325.6,377.1L326.2,377.8L326.3,378.4L326.6,378.7L327.1,379.6L327.1,381.4L327.4,381.9L327.3,382.4L327.1,383.0L327.1,383.0L326.9,382.8L326.7,382.9L326.6,383.1L326.6,383.3L326.5,383.3L326.1,383.5L325.7,383.6L325.4,383.8L325.0,384.3L324.1,384.4L323.6,383.2L323.0,384.0L322.8,385.7L322.6,386.0L322.2,386.2L321.5,385.6L320.9,386.0L320.4,386.4L320.1,386.8L319.8,387.2L319.1,386.8L318.5,386.2L318.7,385.8L318.6,385.5L318.3,385.3L318.1,385.3L318.2,385.9L318.3,387.0L318.0,387.3L317.7,387.5L316.8,387.3L316.2,386.9L315.5,386.6L314.9,386.5L314.8,387.2L314.4,387.8L314.0,387.8L313.6,387.7L313.2,388.3L312.9,388.8L312.3,389.2L310.7,389.5L310.2,389.9L309.4,389.8L308.9,390.0L308.5,389.9L308.2,389.7L307.9,389.7L307.7,390.4L306.8,390.8L306.0,390.8L305.1,391.8L304.5,392.4L304.0,392.5L303.6,392.3L303.5,391.4L303.3,391.3L303.2,392.1L303.0,392.8L302.7,393.2L301.7,394.1L301.4,395.0L301.5,395.7L302.9,395.9L303.1,396.4L303.0,396.7L302.6,397.0L302.6,397.5L304.1,398.9L304.1,399.5L303.9,399.8L303.6,400.4L302.8,401.0L301.1,401.3L299.7,401.0L299.3,400.3L299.3,399.9L299.7,400.0L300.0,400.0L299.9,399.6L299.8,399.3L299.1,398.9L298.6,397.9L298.7,397.1L298.4,396.5L298.1,395.9L297.8,395.6L297.6,395.2L297.9,393.9L297.7,393.2L298.3,392.3L298.5,391.3L299.6,390.9L299.7,390.0L298.9,389.9L298.3,389.2L298.2,389.5L297.8,389.5L297.1,388.2L296.9,388.0L296.5,388.0L296.7,389.4L295.9,390.0L295.2,390.2L294.2,390.3L293.7,390.5L293.2,390.3L293.3,389.9L293.6,389.4L293.3,388.9L292.8,388.6L292.0,388.6L291.4,388.5L290.9,388.6L290.6,388.4L290.1,387.7L289.7,387.3L289.5,386.9L289.7,386.4L289.5,386.1L288.6,386.0L288.6,386.7L288.7,387.6L289.0,388.2L288.8,388.5L288.4,388.8L287.9,388.1L287.7,388.0L287.4,388.0L287.3,388.6L286.9,389.2L286.1,389.2L285.5,389.5L284.8,389.7ZM306.9,403.8L307.3,404.2L307.5,404.8L307.7,405.9L307.9,406.9L307.1,407.6L306.4,407.8L305.0,410.3L304.7,411.1L304.5,411.4L304.4,411.8L304.5,412.1L304.1,413.3L303.8,414.8L303.6,415.4L303.2,415.8L302.7,416.1L302.4,416.1L302.1,416.2L301.4,417.0L300.5,417.6L300.7,417.9L300.7,418.2L300.3,418.5L299.9,418.4L298.8,418.6L298.3,419.1L297.9,419.9L297.7,420.0L297.1,420.2L296.5,420.3L295.6,419.7L295.2,419.5L294.0,419.3L292.8,418.9L292.0,418.5L290.3,417.3L290.1,415.4L289.8,414.3L289.8,413.9L289.9,410.6L290.0,410.2L290.3,409.9L291.0,409.1L291.8,408.5L293.0,407.3L293.9,406.8L294.7,405.9L294.2,406.0L293.9,405.9L294.2,405.2L294.6,404.8L295.0,404.6L295.8,404.8L296.5,404.6L297.0,404.0L297.5,403.9L299.5,404.1L300.8,403.8L301.5,403.2L301.8,403.2L302.8,403.4L303.2,404.0L303.1,403.6L303.2,403.2L303.3,403.2L304.6,403.9L304.6,403.1L304.7,402.8L305.1,402.4L305.3,402.5L305.8,403.2L306.3,403.6L306.9,403.8Z" fill="rgba(58,107,114,0.12)" stroke="#3a6b72" stroke-width="2" stroke-linejoin="round" stroke-linecap="round"/></svg>